<?xml version="1.0" standalone="no"?>
<!DOCTYPE svg PUBLIC "-//W3C//DTD SVG 20010904//EN"
 "http://www.w3.org/TR/2001/REC-SVG-20010904/DTD/svg10.dtd">
<svg version="1.0" xmlns="http://www.w3.org/2000/svg"
 width="300.000000pt" height="300.000000pt" viewBox="0 0 300.000000 300.000000"
 preserveAspectRatio="xMidYMid meet">
<metadata>
Created by potrace 1.10, written by Peter Selinger 2001-2011
</metadata>
<g transform="translate(0.000000,300.000000) scale(0.100000,-0.100000)"
fill="#000000" stroke="none">
<path d="M1087 2213 c-2 -5 2 -43 9 -86 30 -169 114 -325 255 -472 45 -47 86
-85 90 -85 20 0 6 22 -54 82 -153 153 -250 335 -272 511 -7 52 -17 70 -28 50z"/>
<path d="M1355 2153 c-8 -12 -15 -25 -15 -28 0 -2 27 -4 59 -3 41 1 67 -4 85
-15 42 -28 31 -37 -42 -37 -54 0 -72 -4 -85 -18 -10 -10 -17 -20 -17 -23 0 -2
41 -3 92 -1 l91 4 -15 -23 c-25 -39 -64 -61 -107 -63 -67 -1 -62 -25 32 -132
80 -90 83 -93 126 -94 l43 0 -86 94 -86 94 35 12 c44 14 94 55 106 87 6 16 16
23 35 23 23 0 53 23 54 41 0 4 -20 4 -44 2 -36 -4 -44 -2 -50 13 -3 11 -9 25
-12 33 -5 11 2 13 34 9 35 -5 43 -3 57 18 8 13 15 25 15 26 0 2 -65 3 -145 3
-140 0 -147 -1 -160 -22z"/>
<path d="M1571 1641 l-293 -288 32 -12 c71 -24 135 -4 211 67 52 48 60 52 80
41 20 -10 102 -9 139 3 10 3 53 -34 120 -104 l104 -108 -32 -32 -32 -33 -90
90 c-49 49 -93 86 -97 82 -4 -4 33 -48 82 -97 l90 -90 -33 -32 -32 -33 -89 89
c-61 61 -91 84 -96 76 -5 -9 22 -42 79 -98 l87 -85 -28 -29 c-15 -15 -31 -28
-37 -28 -6 0 -48 37 -93 82 -45 45 -86 79 -90 75 -4 -4 32 -47 80 -95 l87 -88
-28 -27 c-15 -15 -32 -27 -38 -27 -5 0 -45 36 -89 79 -43 44 -83 77 -88 74 -5
-3 28 -43 74 -89 46 -46 80 -86 77 -89 -3 -4 -24 3 -46 14 -29 15 -42 29 -47
51 -7 32 -38 60 -67 60 -10 0 -18 7 -18 15 0 30 -24 64 -51 74 -15 5 -30 7
-33 4 -3 -4 -6 6 -6 20 0 34 -32 67 -65 67 -17 0 -25 5 -25 18 0 52 -64 91
-111 68 l-28 -14 -85 90 c-51 53 -90 87 -97 83 -7 -5 23 -42 80 -99 l91 -92
-30 -29 -31 -29 -137 137 c-75 75 -141 137 -145 137 -4 0 -7 -5 -7 -11 0 -17
677 -682 706 -693 15 -6 33 -6 48 0 24 9 706 672 706 686 0 24 -37 -4 -136
-103 l-112 -112 -55 59 -55 59 54 16 c75 23 135 61 182 114 60 68 104 172 77
182 -6 2 -16 -16 -22 -39 -29 -106 -131 -202 -249 -234 l-65 -17 -35 34 -35
34 41 34 c49 40 96 109 83 122 -5 5 -24 -13 -43 -43 -46 -68 -117 -109 -194
-111 -30 -1 -59 3 -63 7 -4 4 7 20 25 35 30 26 42 51 24 51 -4 0 -39 -32 -77
-71 -94 -96 -146 -129 -205 -129 l-46 0 278 277 c153 153 278 281 278 285 0 5
-3 8 -7 7 -5 0 -140 -130 -302 -288z m-350 -361 c34 -19 24 -61 -26 -110 l-45
-44 -38 37 -37 38 47 44 c48 46 66 52 99 35z m103 -99 c24 -26 15 -48 -39
-101 l-45 -44 -37 37 -38 37 50 45 c55 48 83 55 109 26z m95 -102 c14 -25 13
-29 -13 -59 -15 -19 -39 -42 -52 -53 l-25 -20 -35 34 -34 33 47 48 c55 56 88
61 112 17z m72 -69 c39 -21 18 -85 -42 -129 l-31 -23 -34 33 -34 33 47 48 c49
50 61 55 94 38z m65 -95 c10 -8 27 -15 37 -15 25 0 21 -10 -20 -52 -30 -30
-44 -38 -74 -38 -61 0 -66 20 -17 72 24 25 46 46 49 47 3 0 14 -6 25 -14z"/>
</g>
</svg>
